<svg xmlns="http://www.w3.org/2000/svg" width="17.015" height="17.013" viewBox="0 0 17.015 17.013">
  <path id="Vector" d="M9.382,1.155,10.79,3.994a1.74,1.74,0,0,0,1.136.847l2.552.427c1.632.274,2.016,1.468.84,2.645l-1.984,2a1.761,1.761,0,0,0-.416,1.46l.568,2.476c.448,1.96-.584,2.718-2.3,1.694L8.79,14.116a1.717,1.717,0,0,0-1.584,0L4.815,15.544c-1.712,1.024-2.752.258-2.3-1.694l.568-2.476a1.761,1.761,0,0,0-.416-1.46l-1.984-2c-1.168-1.178-.792-2.371.84-2.645l2.552-.427A1.744,1.744,0,0,0,5.2,3.994L6.606,1.155C7.374-.385,8.622-.385,9.382,1.155Z" transform="translate(0.507 0.5)" fill="none" stroke="#4594cd" stroke-linecap="round" stroke-linejoin="round" stroke-width="1"/>
</svg>
