<svg xmlns="http://www.w3.org/2000/svg" xmlns:xlink="http://www.w3.org/1999/xlink" width="117.844" height="41.613" viewBox="0 0 117.844 41.613">
  <defs>
    <linearGradient id="linear-gradient" x1="0.5" y1="-0.076" x2="0.5" y2="1" gradientUnits="objectBoundingBox">
      <stop offset="0" stop-color="#f0b90b"/>
      <stop offset="0.765" stop-color="#f0b90b" stop-opacity="0.11"/>
      <stop offset="1" stop-color="#fff" stop-opacity="0"/>
    </linearGradient>
  </defs>
  <g id="Group_9285" data-name="Group 9285" transform="translate(-1176.174 -1038.22)">
    <path id="Graph_Blue" data-name="Graph Blue" d="M6.513,30.031a1.127,1.127,0,0,1,1.573,0l4.956,4.612a1.177,1.177,0,0,0,1.946-.614l7.3-23.68a1.188,1.188,0,0,1,2.308-.052l5.471,15.685a1.174,1.174,0,0,0,2.167.265l3.37-5.656a1.163,1.163,0,0,1,2.094.091l2.834,5.657A1.259,1.259,0,0,0,41.31,27l4.9,1.351a1.2,1.2,0,0,1,.554.34l6.419,6.851a1.164,1.164,0,0,0,.81.379l6.663.222a1.171,1.171,0,0,1,.844.417l7.941,9.161a1.186,1.186,0,0,0,2.074-.631l7.463-33.5a1.2,1.2,0,0,1,2.368-.075L83.057,17.7a1.393,1.393,0,0,0,.448.706L86.8,21.125a1.337,1.337,0,0,1,.318.387L88.2,23.479a1.17,1.17,0,0,0,2.155-.131L93.531,15.9a1.186,1.186,0,0,1,2.28.172l2.514,8.728a1.281,1.281,0,0,0,1,.944l5.707.924a1.129,1.129,0,0,1,.339.113l3.914,2.029a1.131,1.131,0,0,0,1.388-.282l6.35-7.2.011,28.937H0V36.16Z" transform="translate(1176.623 1029.565)" fill="url(#linear-gradient)"/>
    <path id="Graph_Blue_Outline" data-name="Graph Blue Outline" d="M0,36.272l6.652-5.714a1.124,1.124,0,0,1,1.52.025l4.879,4.448a1.178,1.178,0,0,0,1.936-.622l7.415-24a1.189,1.189,0,0,1,2.309-.046l5.462,15.861a1.175,1.175,0,0,0,2.182.249l3.35-5.862a1.165,1.165,0,0,1,2.119.094l2.83,5.93a1.262,1.262,0,0,0,.8.691l4.981,1.348A1.2,1.2,0,0,1,47,29.03L53.307,35.9a1.166,1.166,0,0,0,.819.389l6.759.226a1.147,1.147,0,0,1,.708.282L69.781,43.8a1.189,1.189,0,0,0,1.934-.749l7.394-31.508a1.2,1.2,0,0,1,2.366-.053L83.306,18.2a1.393,1.393,0,0,0,.454.714l2.993,2.445a1.322,1.322,0,0,1,.281.32l1.457,2.312a1.169,1.169,0,0,0,2.124-.231l2.965-7.378a1.186,1.186,0,0,1,2.287.13l2.581,8.653a1.283,1.283,0,0,0,.97.927l5.857,1.065a1.135,1.135,0,0,1,.35.126l3.582,2a1.131,1.131,0,0,0,1.422-.268l6.512-7.426" transform="translate(1176.5 1029.236)" fill="none" stroke="#f0b90b" stroke-miterlimit="10" stroke-width="1"/>
  </g>
</svg>
